{"title":"{Best Rip}Saadiyan (2010) PDVDRip Hindi 1CDRip XviD@Mastitorrent","uid":5480169,"size":730575172,"categoryP":"video","categoryS":"movies","magnet":"?xt=urn:btih:1c83a16eeae79eb7028e1871dd5911db50e83d6f&amp;dn=%7BBest+Rip%7DSaadiyan+%282010%29+PDVDRip+Hindi+1CDRip+XviD%40Mastitorrent&amp;tr=udp%3A%2F%2Ftracker.openbittorrent.com%3A80&amp;tr=udp%3A%2F%2Fopen.demonii.com%3A1337&amp;tr=udp%3A%2F%2Ftracker.coppersurfer.tk%3A6969&amp;tr=udp%3A%2F%2Fexodus.desync.com%3A6969","seeders":0,"leechers":1,"uploader":"amanrulz","files":1,"time":1270340321,"description":"Mastitorrents.com &lt;a href=&quot;\nhttp://mastitorrents.com/forums/index.php&quot; rel=&quot;nofollow&quot; target=&quot;_NEW&quot;&gt;\nhttp://mastitorrents.com/forums/index.php&lt;/a&gt;\n\nInfo:\n\nGenre............: Drama | Romance\nYear.............: 2010\nIMDb Link........: http://www.imdb.com/title/tt1183944/\nSource...........: PDVD @ IcTV (Thx)\nRipper...........: Princeplain (Aamir) -DrC\nSample...........:\n\nGeneral\n\nFormat/Info                      : Audio Video Interleave\nFile size                        : 697 MiB\nDuration                         : 2h 8mn\nOverall bit rate                 : 756 Kbps\nWriting library                  : MPlayer\n\nVideo\nFormat                           : MPEG-4 Visual\nFormat profile                   : Streaming Video@L1\nFormat settings, BVOP            : Yes\nFormat settings, QPel            : Yes\nFormat settings, GMC             : No warppoints\nFormat settings, Matrix          : Default\nCodec ID                         : XVID\nCodec ID/Hint                    : XviD\nDuration                         : 2h 8mn\nBit rate                         : 682 Kbps\nWidth                            : 608 pixels\nHeight                           : 256 pixels\nDisplay aspect ratio             : 2.35\nFrame rate                       : 23.976 fps\nResolution                       : 24 bits\nColorimetry                      : 4:2:0\nScan type                        : Progressive\nBits/(Pixel*Frame)               : 0.183\nStream size                      : 629 MiB (90%)\nWriting library                  : XviD 1.2.1 (UTC 2008-12-04)\n\nAudio\nFormat                           : MPEG Audio\nFormat version                   : Version 2\nFormat profile                   : Layer 3\nCodec ID                         : 55\nCodec ID/Hint                    : MP3\nDuration                         : 2h 8mn\nBit rate mode                    : Variable\nBit rate                         : 61.0 Kbps\nMinimum bit rate                 : 64.0 Kbps\nChannel(s)                       : 2 channels\nSampling rate                    : 24.0 KHz\nResolution                       : 16 bits\nStream size                      : 56.2 MiB (8%)\nAlignment                        : Aligned on interleaves\nInterleave, duration             : 24 ms (0.58 video frame)\nInterleave, preload duration     : 494 ms\nWriting library                  : LAME3.98r\nEncoding settings                : ABR\n\nRipper Notes:\nJoin Mastitorrents","torrent":{"xt":"urn:btih:1c83a16eeae79eb7028e1871dd5911db50e83d6f","amp;dn":"%7BBest+Rip%7DSaadiyan+%282010%29+PDVDRip+Hindi+1CDRip+XviD%40Mastitorrent","amp;tr":["udp%3A%2F%2Ftracker.openbittorrent.com%3A80","udp%3A%2F%2Fopen.demonii.com%3A1337","udp%3A%2F%2Ftracker.coppersurfer.tk%3A6969","udp%3A%2F%2Fexodus.desync.com%3A6969"],"infoHash":"1c83a16eeae79eb7028e1871dd5911db50e83d6f","infoHashBuffer":{"type":"Buffer","data":[28,131,161,110,234,231,158,183,2,142,24,113,221,89,17,219,80,232,61,111]},"announce":[],"urlList":[]}}